<?xml version="1.0" encoding="utf-8"?>
<!-- Generator: Adobe Illustrator 21.0.0, SVG Export Plug-In . SVG Version: 6.00 Build 0)  -->
<svg version="1.1" id="Layer_1" xmlns="http://www.w3.org/2000/svg" xmlns:xlink="http://www.w3.org/1999/xlink" x="0px" y="0px"
	 viewBox="0 0 112.5 112.5" style="enable-background:new 0 0 112.5 112.5;" xml:space="preserve">
<style type="text/css">
	.st0{fill:#FFFFFF;}
	.st1{fill:#EF4B30;}
</style>
<g>
	<circle class="st0" cx="56.3" cy="56.3" r="56.3"/>
	<g>
		<path class="st1" d="M56.2,0C25.2,0,0,25.2,0,56.3c0,26.1,17.8,48.1,41.9,54.4c0.3-0.4,8.6-11.5,8.6-11.5L34.8,75.4l4.7,0.1
			l13.8,20.3l7-10.3c-1.3-2-2.1-4.4-2.3-6.9l-3.8-31.3L43.3,64.1L32.5,47.3l-2.8,30h-4.5l4.2-41.4l13.9,20.5L57.1,36L61.2,68
			c2.2-2.8,5.5-4.8,9.2-5.5c-3.6-1.9-6.1-5.7-6.1-10.1c0-2.9,1.1-5.5,2.9-7.5l-2.7-25.3L56.4,32l-7.9-12.4l-2.1,22.2h-4.2l3.3-33
			l10.9,16l7.6-11.2l0.3,0.2l-0.3-0.2l3.3-4.8L71,42.1c1.4-0.6,3-1,4.7-1c2.4,0,4.7,0.8,6.5,2l5.2-5.2l2.8,2.8l-5.2,5.2
			c1.3,1.9,2.1,4.1,2.1,6.5c0,5.2-3.5,9.6-8.3,10.9c5.5,2.3,9.4,7.7,9.4,14c0,8.4-6.8,15.1-15.1,15.1c-3.8,0-7.3-1.4-10-3.8
			l-16.4,22.9c3.1,0.5,6.3,0.8,9.6,0.8c31.1,0,56.3-25.2,56.3-56.2C112.5,25.2,87.3,0,56.2,0z"/>
		<path class="st1" d="M61.9,77.4c0,6.2,5,11.2,11.2,11.2c6.2,0,11.2-5,11.2-11.2c0-6.2-5-11.2-11.2-11.2
			C66.9,66.2,61.9,71.2,61.9,77.4z"/>
		<path class="st1" d="M83.1,52.5c0-4.1-3.3-7.4-7.4-7.4c-4.1,0-7.4,3.3-7.4,7.4c0,4.1,3.3,7.4,7.4,7.4
			C79.8,59.9,83.1,56.6,83.1,52.5z"/>
	</g>
</g>
</svg>
